<?xml version="1.0" standalone="no"?>
<!DOCTYPE svg PUBLIC "-//W3C//DTD SVG 20010904//EN"
 "http://www.w3.org/TR/2001/REC-SVG-20010904/DTD/svg10.dtd">
<svg version="1.0" xmlns="http://www.w3.org/2000/svg"
 width="300.000000pt" height="225.000000pt" viewBox="0 0 300.000000 225.000000"
 preserveAspectRatio="xMidYMid meet">
<metadata>
Created by potrace 1.10, written by Peter Selinger 2001-2011
</metadata>
<g transform="translate(0.000000,225.000000) scale(0.100000,-0.100000)"
fill="#000000" stroke="none">
<path d="M0 2030 c0 -20 8 -20 1453 -22 l1452 -3 0 -270 0 -270 -1332 -3
c-1063 -2 -1333 0 -1334 10 -4 71 -33 92 -122 85 -73 -5 -96 -20 -97 -64 0
-12 -5 -25 -10 -28 -6 -3 -10 -15 -10 -26 0 -19 22 -19 1475 -19 l1475 0 0
315 0 315 -1475 0 c-1468 0 -1475 0 -1475 -20z m210 -541 l0 -40 -82 3 -83 3
-3 34 c-2 19 1 37 6 40 6 3 44 5 86 3 l76 -4 0 -39z"/>
<path d="M2364 1975 c-7 -5 -14 -21 -16 -35 -2 -18 -10 -26 -28 -28 -41 -6
-50 -21 -50 -81 0 -46 4 -59 20 -69 16 -9 85 -12 273 -12 292 1 287 0 287 85
0 56 -10 71 -50 77 -15 2 -26 11 -28 23 -2 11 -8 25 -13 30 -13 14 -378 23
-395 10z m16 -17 c0 -9 4 -8 10 2 5 8 10 10 10 5 0 -7 23 -9 60 -7 41 3 66 -1
77 -10 10 -8 14 -8 10 -1 -4 6 -3 14 2 17 5 3 12 -1 15 -10 5 -14 8 -14 28 0
32 23 48 20 48 -9 0 -15 -6 -25 -14 -25 -9 0 -13 8 -9 23 4 20 3 20 -9 5 -14
-17 -49 -21 -180 -19 -61 1 -68 3 -68 21 0 11 5 20 10 20 6 0 10 -6 10 -12z
m317 -5 c8 -12 12 -13 11 -4 -4 20 15 23 37 7 27 -19 16 -28 -40 -31 -47 -3
-61 6 -51 30 7 20 26 19 43 -2z m133 -120 l0 -58 -271 2 -271 2 -2 55 -1 56
273 0 272 0 0 -57z"/>
<path d="M590 1818 c-13 -5 -82 -10 -153 -13 -71 -2 -130 -5 -132 -7 -2 -2
-44 0 -92 3 -65 6 -91 4 -101 -5 -17 -17 -5 -45 22 -50 60 -13 105 -15 111 -6
3 5 12 7 19 4 16 -6 46 21 46 42 0 15 12 19 24 7 3 -4 28 -6 55 -4 36 2 50 -2
54 -13 3 -8 2 -18 -3 -21 -6 -4 -10 2 -11 12 0 15 -2 15 -7 3 -8 -17 -92 -24
-92 -8 0 5 -4 6 -10 3 -22 -14 -7 -22 45 -24 74 -3 95 5 95 35 0 22 3 24 54
24 49 0 54 -2 54 -23 0 -30 -38 -32 -39 -2 -1 17 -2 16 -9 -5 l-8 -25 -1 24
c-1 20 -3 22 -16 11 -34 -29 7 -40 169 -47 94 -4 120 -3 127 8 13 20 11 55 -3
67 -17 13 -169 21 -198 10z m-447 -25 c-7 -2 -13 -9 -13 -14 0 -6 8 -6 19 1
34 18 61 12 62 -12 2 -23 2 -23 6 -1 3 17 11 21 39 21 27 0 34 -4 32 -16 -2
-10 -13 -17 -25 -17 -12 0 -25 -3 -29 -7 -12 -12 -23 -9 -44 12 -13 13 -20 15
-20 7 0 -17 -36 -19 -50 -2 -14 17 -5 35 18 34 11 0 12 -3 5 -6z m637 -25 c0
-16 -4 -28 -10 -28 -5 0 -10 4 -10 9 0 4 -18 8 -40 7 -22 -1 -40 3 -40 8 0 6
-4 5 -9 -3 -8 -12 -12 -12 -25 -2 -13 11 -18 10 -32 -3 -20 -21 -33 -13 -27
17 4 23 8 23 99 23 l94 -1 0 -27z"/>
<path d="M2412 1700 c-47 -4 -67 -10 -78 -24 -18 -26 -18 -80 1 -116 l16 -30
204 0 c192 0 206 1 225 20 14 14 20 33 20 68 0 78 -11 83 -182 86 -79 1 -172
-1 -206 -4z m366 -82 l-3 -63 -215 0 -215 0 -1 63 0 62 218 0 219 0 -3 -62z"/>
<path d="M2516 1632 c-6 -10 72 -7 82 2 3 3 -13 6 -36 6 -22 0 -43 -4 -46 -8z"/>
<path d="M240 1342 c0 -16 11 -18 95 -18 74 -1 95 2 95 12 0 12 -45 20 -81 16
-56 -8 -79 -8 -79 -1 0 5 -7 9 -15 9 -8 0 -15 -8 -15 -18z"/>
<path d="M740 1343 c0 -15 10 -18 65 -19 51 -1 65 2 65 14 0 8 -6 12 -14 9 -7
-3 -18 -1 -23 4 -5 5 -22 5 -41 0 -20 -6 -32 -6 -32 0 0 5 -4 9 -10 9 -5 0
-10 -8 -10 -17z"/>
<path d="M1212 1343 c3 -14 14 -18 58 -18 30 0 56 5 57 10 2 6 -15 10 -37 10
-22 -1 -40 3 -40 7 0 4 -9 8 -21 8 -14 0 -19 -5 -17 -17z"/>
<path d="M1671 1343 c-1 -20 3 -22 49 -20 32 1 50 6 50 14 0 9 -14 11 -45 9
-26 -2 -46 1 -49 8 -2 6 -5 1 -5 -11z"/>
<path d="M2100 1342 c0 -15 10 -18 66 -19 56 -1 65 1 62 15 -2 13 -14 17 -43
17 -22 0 -43 -4 -47 -10 -5 -6 -8 -5 -8 3 0 6 -7 12 -15 12 -8 0 -15 -8 -15
-18z"/>
<path d="M2555 1350 c-16 -26 29 -41 54 -17 10 8 12 8 7 0 -4 -8 2 -11 20 -10
28 2 47 26 22 28 -7 1 -32 3 -55 5 -23 2 -45 -1 -48 -6z"/>
<path d="M200 1270 c0 -16 7 -19 35 -18 23 1 35 6 35 16 0 8 -6 12 -15 8 -8
-3 -15 -2 -15 2 0 4 -9 8 -20 9 -14 1 -20 -4 -20 -17z"/>
<path d="M396 1282 c-3 -5 -26 -7 -51 -5 -35 4 -45 2 -45 -10 0 -12 15 -15 82
-13 53 0 83 5 85 13 2 6 -4 12 -14 11 -10 0 -25 2 -34 6 -10 4 -20 3 -23 -2z"/>
<path d="M572 1229 l3 -50 230 0 230 0 3 50 3 51 -236 0 -236 0 3 -51z m435 1
c1 -23 1 -23 -4 -2 -6 32 -48 27 -47 -5 0 -13 -3 -23 -8 -23 -5 0 -12 10 -17
23 -10 25 7 37 49 34 19 -2 25 -8 27 -27z m-332 11 c6 9 10 8 16 -7 6 -16 8
-16 8 -2 1 14 6 15 30 8 16 -4 32 -6 34 -3 9 9 48 -8 45 -19 -4 -11 -165 -14
-176 -4 -3 3 1 13 8 21 10 11 15 13 20 4 6 -8 10 -8 15 2z m159 -7 c9 -8 16
-11 16 -6 0 14 63 9 68 -5 2 -9 -11 -13 -47 -13 -28 0 -51 2 -51 4 0 2 -3 11
-6 20 -8 20 0 20 20 0z"/>
<path d="M1069 1278 c0 -2 -1 -25 -2 -51 l-2 -48 209 -1 209 0 0 48 0 49 -207
3 c-113 1 -206 1 -207 0z m126 -48 c0 -10 -13 -16 -39 -18 -44 -4 -70 13 -46
29 22 14 85 6 85 -11z m99 -6 c3 -8 -1 -14 -9 -14 -8 0 -15 6 -15 13 0 8 -3 8
-8 2 -10 -16 -52 -16 -52 -1 0 20 7 22 44 18 19 -2 37 -10 40 -18z m136 7 c0
-15 -9 -20 -46 -23 -49 -4 -82 11 -70 30 4 7 31 12 62 12 46 0 54 -3 54 -19z"/>
<path d="M1512 1229 l3 -50 205 0 205 0 3 50 3 51 -211 0 -211 0 3 -51z m377
12 c37 -23 -5 -31 -170 -31 -139 0 -169 3 -169 14 0 8 6 16 13 19 22 9 312 7
326 -2z"/>
<path d="M1959 1278 c0 -2 -1 -25 -2 -51 l-2 -48 210 0 210 0 0 48 -1 48 -207
3 c-114 1 -207 1 -208 0z m365 -34 c9 -3 16 -12 16 -20 0 -11 -21 -14 -97 -15
-228 -2 -265 3 -249 30 7 11 303 15 330 5z"/>
<path d="M2402 1230 l3 -51 209 -1 209 0 0 48 0 49 -212 3 -212 2 3 -50z m136
-2 c3 -15 -4 -18 -47 -18 -51 0 -75 15 -50 31 24 16 93 6 97 -13z m82 11 c0
-5 -6 -9 -12 -9 -9 0 -8 -3 2 -10 8 -5 11 -12 7 -16 -4 -4 -12 -3 -18 3 -6 6
-18 9 -25 6 -13 -5 -20 17 -10 28 9 8 56 7 56 -2z m148 -11 c3 -16 -5 -18 -62
-18 -36 0 -68 5 -71 10 -13 22 9 31 68 28 50 -2 62 -6 65 -20z"/>
<path d="M122 1158 l3 -53 210 0 210 0 -1 50 -1 50 -212 3 -212 2 3 -52z m386
0 c3 -17 -10 -18 -172 -18 -145 0 -176 2 -176 14 0 22 15 24 185 23 143 -2
160 -4 163 -19z"/>
<path d="M240 1015 c0 -11 12 -15 51 -15 31 0 48 -4 44 -10 -9 -14 8 -13 23 2
7 7 12 9 12 5 0 -3 11 -2 24 3 17 6 26 5 30 -3 2 -7 5 -2 5 11 1 12 -3 22 -9
22 -5 0 -10 -3 -10 -7 0 -5 -31 -8 -70 -8 -38 0 -70 3 -70 8 0 4 -7 7 -15 7
-8 0 -15 -7 -15 -15z"/>
<path d="M700 1012 c0 -17 5 -19 51 -15 34 3 49 1 44 -6 -3 -6 -1 -11 4 -11 6
0 11 5 11 11 0 6 7 9 15 5 9 -3 15 0 15 9 0 11 -12 15 -47 14 -27 -1 -58 2
-70 6 -19 6 -23 4 -23 -13z"/>
<path d="M1150 1016 c0 -13 11 -16 58 -16 40 0 53 -3 42 -10 -8 -5 -10 -10 -4
-10 6 0 14 3 18 8 4 4 13 7 19 7 5 0 12 6 15 13 2 8 -11 12 -50 12 -29 0 -63
3 -75 6 -17 5 -23 2 -23 -10z"/>
<path d="M1602 1014 c3 -15 11 -18 57 -15 33 2 51 -1 47 -7 -3 -6 5 -5 19 1
37 18 30 27 -19 27 -24 0 -58 3 -76 6 -28 6 -32 4 -28 -12z"/>
<path d="M2060 1013 c0 -18 4 -19 38 -13 42 7 65 3 56 -11 -6 -11 10 -12 20
-1 4 4 13 7 19 7 5 0 12 6 15 13 2 8 -11 12 -50 12 -29 0 -63 3 -75 6 -18 5
-23 2 -23 -13z"/>
<path d="M2510 1015 c0 -15 19 -19 74 -15 18 1 26 -2 22 -9 -8 -12 7 -15 18
-3 4 4 13 7 19 7 5 0 12 6 15 13 3 11 -9 13 -57 10 -34 -1 -61 0 -61 5 0 4 -7
7 -15 7 -8 0 -15 -7 -15 -15z"/>
<path d="M120 900 l0 -50 215 0 215 0 0 50 0 50 -215 0 -215 0 0 -50z m395 0
c0 -13 -26 -15 -175 -15 -159 0 -175 2 -178 18 -3 16 9 17 175 15 150 -3 178
-5 178 -18z"/>
<path d="M580 900 l0 -50 215 0 215 0 0 50 0 50 -215 0 -215 0 0 -50z m385 0
c0 -13 -27 -15 -169 -18 -163 -2 -197 3 -181 27 4 8 60 11 178 9 145 -3 172
-5 172 -18z"/>
<path d="M1030 900 l0 -50 215 0 215 0 0 50 0 50 -215 0 -215 0 0 -50z m395 0
c0 -13 -27 -15 -169 -18 -163 -2 -197 3 -181 27 4 8 60 11 178 9 145 -3 172
-5 172 -18z"/>
<path d="M1490 900 l0 -50 213 0 212 0 0 50 0 50 -212 0 -213 0 0 -50z m390 0
c0 -19 -7 -20 -174 -20 -168 0 -197 5 -181 30 4 6 75 10 181 10 167 0 174 -1
174 -20z"/>
<path d="M1940 900 l0 -50 215 0 215 0 0 50 0 50 -215 0 -215 0 0 -50z m395 0
c0 -13 -26 -15 -175 -15 -159 0 -175 2 -178 18 -3 16 9 17 175 15 150 -3 178
-5 178 -18z"/>
<path d="M2390 900 l0 -50 214 0 214 0 4 46 c2 25 1 47 -1 50 -2 2 -100 4
-218 4 l-213 0 0 -50z m395 0 c0 -13 -26 -15 -175 -15 -159 0 -175 2 -178 18
-3 16 9 17 175 15 150 -3 178 -5 178 -18z"/>
<path d="M470 754 c0 -12 9 -15 38 -13 20 1 44 -1 52 -4 22 -10 55 -2 55 13 0
15 -103 20 -109 5 -3 -5 -5 -4 -5 3 -1 18 -31 15 -31 -4z"/>
<path d="M1380 756 c0 -14 85 -27 123 -18 30 7 18 20 -23 24 -22 2 -40 1 -40
-3 0 -3 -7 -6 -15 -6 -8 0 -15 4 -15 9 0 4 -7 8 -15 8 -8 0 -15 -6 -15 -14z"/>
<path d="M2290 756 c0 -10 16 -15 53 -18 62 -5 89 0 84 16 -4 12 -59 13 -96 1
-16 -5 -21 -4 -17 4 4 6 0 11 -8 11 -9 0 -16 -6 -16 -14z"/>
<path d="M124 691 c-2 -2 -4 -26 -4 -53 l0 -48 446 0 445 0 -3 50 -3 51 -438
2 c-241 1 -441 0 -443 -2z m844 -48 c-3 -17 -31 -18 -383 -21 -209 -1 -390 0
-402 3 -13 3 -23 12 -23 20 0 13 54 15 406 15 381 0 405 -1 402 -17z"/>
<path d="M1034 691 c-2 -2 -4 -26 -4 -53 l0 -48 441 2 442 3 1 48 1 47 -439 3
c-241 1 -440 0 -442 -2z m844 -49 c-3 -16 -34 -17 -406 -20 -394 -2 -402 -2
-402 18 0 18 8 20 128 22 70 2 252 2 405 0 257 -2 278 -4 275 -20z"/>
<path d="M1944 691 c-9 -9 -4 -101 6 -101 13 0 28 32 23 47 -7 19 20 26 95 25
37 0 214 0 395 -1 l327 -1 0 -28 c0 -15 5 -33 12 -40 9 -9 -85 -12 -424 -12
l-436 0 -4 -50 c-1 -28 0 -50 5 -50 4 0 204 0 445 0 l437 0 -2 105 -2 106
-436 2 c-240 1 -439 0 -441 -2z m325 -131 c2 -3 1 -15 -3 -27 -7 -22 -13 -23
-109 -24 -183 -2 -187 -2 -187 27 0 16 7 24 23 26 35 5 272 4 276 -2z m504 2
c11 -1 17 -10 17 -27 0 -20 -5 -25 -25 -25 -35 -1 -210 -1 -237 0 -25 0 -55
46 -35 53 10 3 239 2 280 -1z m-467 -20 c-3 -5 13 -7 35 -5 28 2 39 -1 39 -11
0 -10 -14 -14 -48 -14 -40 -1 -48 2 -49 19 -1 11 5 19 13 19 8 0 13 -4 10 -8z
m172 -15 c5 -26 -74 -24 -81 2 -4 17 1 19 37 17 29 -2 42 -7 44 -19z"/>
<path d="M1938 399 c-1 -28 -1 -53 1 -55 2 -2 204 -4 448 -4 l443 0 0 55 0 55
-444 0 -444 0 -4 -51z m158 5 c-3 -9 -6 -20 -6 -25 0 -5 -24 -9 -54 -9 -45 0
-55 3 -59 19 -7 28 -1 31 66 31 50 0 58 -2 53 -16z m147 4 c78 0 87 -1 87 -18
0 -13 -7 -18 -20 -17 -11 1 -20 7 -20 14 0 7 -4 13 -10 13 -5 0 -10 -8 -10
-17 0 -15 -2 -16 -10 -3 -5 8 -10 10 -10 4 0 -12 -124 -14 -135 -2 -14 14 4
40 23 33 9 -4 56 -7 105 -7z m121 -16 c-4 -10 -3 -13 3 -6 15 20 51 35 58 24
13 -22 -4 -38 -39 -38 -39 0 -51 10 -42 34 8 21 27 8 20 -14z m142 -6 c2 -16
-20 -18 -43 -3 -6 4 -14 1 -16 -5 -3 -7 -6 -3 -6 9 -2 37 59 36 65 -1z m117
11 c-3 -6 4 -3 18 6 16 12 44 17 86 17 61 0 63 -1 63 -25 0 -24 -3 -25 -59
-25 -54 0 -60 2 -64 23 l-4 22 -8 -23 c-6 -17 -14 -22 -37 -20 -35 3 -44 14
-28 33 13 16 43 9 33 -8z m-47 -9 c0 -25 -49 -21 -54 5 -3 14 2 17 25 15 20
-1 29 -7 29 -20z"/>
</g>
</svg>
